<?xml version="1.0" encoding="UTF-8" standalone="no"?>
<svg
   xmlns:dc="http://purl.org/dc/elements/1.1/"
   xmlns:cc="http://creativecommons.org/ns#"
   xmlns:rdf="http://www.w3.org/1999/02/22-rdf-syntax-ns#"
   xmlns:svg="http://www.w3.org/2000/svg"
   xmlns="http://www.w3.org/2000/svg"
   xmlns:sodipodi="http://sodipodi.sourceforge.net/DTD/sodipodi-0.dtd"
   xmlns:inkscape="http://www.inkscape.org/namespaces/inkscape"
   viewBox="0 0 700.00001 700.00001"
   version="1.1"
   id="svg22"
   sodipodi:docname="1xbet-logo.svg"
   width="700"
   height="700"
   inkscape:version="0.92.0 r15299"
   inkscape:export-filename="C:\Users\suitedoalex\sites\1xbet-logo-0.png"
   inkscape:export-xdpi="561.73712"
   inkscape:export-ydpi="561.73712">
  <metadata
     id="metadata26">
    <rdf:RDF>
      <cc:Work
         rdf:about="">
        <dc:format>image/svg+xml</dc:format>
        <dc:type
           rdf:resource="http://purl.org/dc/dcmitype/StillImage" />
        <dc:title>logo_dark_bg</dc:title>
      </cc:Work>
    </rdf:RDF>
  </metadata>
  <sodipodi:namedview
     pagecolor="#ffffff"
     bordercolor="#666666"
     borderopacity="1"
     objecttolerance="10"
     gridtolerance="10"
     guidetolerance="10"
     inkscape:pageopacity="0"
     inkscape:pageshadow="2"
     inkscape:window-width="1920"
     inkscape:window-height="1017"
     id="namedview24"
     showgrid="false"
     inkscape:zoom="0.80354345"
     inkscape:cx="213.72673"
     inkscape:cy="366.87161"
     inkscape:window-x="-8"
     inkscape:window-y="-8"
     inkscape:window-maximized="1"
     inkscape:current-layer="svg22"
     inkscape:snap-others="false" />
  <defs
     id="defs4">
    <style
       id="style2">.cls-1{fill:#14a0ff;}.cls-2{fill:#fff;}</style>
  </defs>
  <title
     id="title6">logo_dark_bg</title>
  <g
     id="Слой_2"
     data-name="Слой 2"
     transform="matrix(4.4731707,0,0,4.4731707,64.701173,287.57665)"
     inkscape:export-filename="C:\Users\suitedoalex\sites\1xbet-logo-4.png"
     inkscape:export-xdpi="67.297859"
     inkscape:export-ydpi="67.297859">
    <g
       id="Layer_1"
       data-name="Layer 1">
      <path
         class="cls-1"
         d="M 73.8,8.37 C 74.94,3.79 72.16,0 65.35,0 H 50.59 l -5.53,22.4 3.21,5.51 h 10.5 c 6.88,0 12.21,-3.21 13.58,-8.79 0.69,-2.86 -0.11,-4.86 -1.91,-5.86 V 13.19 A 7.78,7.78 0 0 0 73.8,8.37 Z m -9,10.57 c -0.28,1.17 -1.07,2.37 -4.34,2.37 h -6.7 l 1.17,-4.8 h 6.67 c 3.23,-0.01 3.47,1.22 3.16,2.43 z M 66.14,8.52 c -0.24,0.9 -0.93,2 -3.75,2 h -6 l 1,-3.9 h 6 c 2.85,-0.02 2.99,0.9 2.75,1.9 z"
         id="path8"
         inkscape:connector-curvature="0"
         style="fill:#14a0ff" />
      <polygon
         class="cls-1"
         points="78.8,0 71.92,27.9 96.5,27.9 98.11,21.3 82.1,21.3 83.09,17.1 96.53,17.1 98.06,10.5 84.71,10.5 85.75,6.6 98.97,6.6 100.5,0 "
         id="polygon10"
         style="fill:#14a0ff" />
      <polygon
         class="cls-1"
         points="127.56,0 102.38,0 100.84,6.6 108.87,6.6 103.6,27.9 112.03,27.9 117.31,6.6 125.91,6.6 "
         id="polygon12"
         style="fill:#14a0ff" />
      <path
         class="cls-2"
         d="M 8.82,27.9 H 0.32 L 4,13 4.85,10.75 2.6,13 0.1,15.53 0,8.09 8.82,0 h 6.87 z"
         id="path14"
         style="fill:#002e5b;fill-opacity:1"
         inkscape:connector-curvature="0" />
      <path
         class="cls-2"
         d="M 39.51,16.34 36.8,11.75 49.95,0 H 37.7 l -5,4.8 v 0 L 15.74,20.35 7.6,27.9 h 11.59 l 8.71,-7.77 2.93,5 c 1,1.26 2.41,2.79 8.39,2.79 h 7 l -6.7,-11.59 z"
         id="path16"
         style="fill:#002e5b;fill-opacity:1"
         inkscape:connector-curvature="0" />
      <path
         class="cls-2"
         d="M 31.76,3.26 V 3.2 A 7.69,7.69 0 0 0 25.12,0 h -9.05 l 6.75,11.48 z"
         id="path18"
         style="fill:#002e5b;fill-opacity:1"
         inkscape:connector-curvature="0" />
    </g>
  </g>
</svg>
